<svg width="131" height="134" viewBox="0 0 131 134" fill="none" xmlns="http://www.w3.org/2000/svg">
<g clip-path="url(#clip0_171_453)">
<path d="M95.7039 61.7414C95.2 61.5129 94.696 61.2972 94.1836 61.0814C99.3293 54.3759 102.098 46.1522 102.056 37.7031C102.056 16.9224 85.655 0 65.4979 0C45.3408 0 28.9441 16.9224 28.9441 37.7031C28.8965 46.1517 31.663 54.3761 36.8079 61.0814C36.016 61.4072 35.4909 61.6441 35.258 61.7541C13.8347 70.5452 0 89.7606 0 110.727V123.796C0 129.423 5.11973 134 11.4082 134H119.588C125.88 134 131.021 129.423 131.021 123.796V110.727C131 89.7479 117.148 70.5283 95.7039 61.7414Z" fill="white"/>
<path d="M94.01 64.927C93.8152 65.1385 93.6247 65.3501 93.4214 65.5701C89.8323 69.3647 85.5057 72.3876 80.7064 74.4536C75.9072 76.5196 70.7364 77.5852 65.5106 77.5852C60.2848 77.5852 55.114 76.5196 50.3147 74.4536C45.5155 72.3876 41.1889 69.3647 37.5998 65.5701C37.3965 65.3585 37.2102 65.147 37.0112 64.927C17.5655 72.8721 3.98061 90.4502 3.98061 110.727V123.796C3.98061 127.481 7.32177 130.463 11.4379 130.463H119.588C123.708 130.463 127.045 127.481 127.045 123.796V110.727C127.041 90.4502 113.447 72.8721 94.01 64.927Z" fill="#305399"/>
<path d="M65.4979 71.8737C73.7969 71.8503 81.7548 68.5718 87.658 62.7441C90.9838 59.4787 93.6205 55.5802 95.412 51.2791C97.2035 46.978 98.1134 42.3617 98.088 37.7031C98.088 18.8304 83.4911 3.53259 65.4809 3.53259C47.4708 3.53259 32.8739 18.8304 32.8739 37.7031C32.8494 42.3615 33.7598 46.9776 35.5512 51.2785C37.3427 55.5795 39.9788 59.4781 43.3039 62.7441C49.2159 68.5792 57.1873 71.8583 65.4979 71.8737Z" fill="#305399"/>
</g>
<defs>
<clipPath id="clip0_171_453">
<rect width="131" height="134" fill="white"/>
</clipPath>
</defs>
</svg>
