<svg width="17" height="17" viewBox="0 0 17 17" fill="none" xmlns="http://www.w3.org/2000/svg">
<g clip-path="url(#clip0_303_605)">
<path d="M6.24044 1.41663L3.67627 3.98788M10.7596 1.41663L13.3238 3.98788" stroke="#603AF9" stroke-width="1.5" stroke-miterlimit="10" stroke-linecap="round" stroke-linejoin="round"/>
<path d="M1.41675 5.56047C1.41675 4.25005 2.118 4.1438 2.98925 4.1438H14.0109C14.8822 4.1438 15.5834 4.25005 15.5834 5.56047C15.5834 7.08338 14.8822 6.97713 14.0109 6.97713H2.98925C2.118 6.97713 1.41675 7.08338 1.41675 5.56047Z" stroke="#603AF9" stroke-width="1.5"/>
<path d="M6.91342 9.91671V12.4313M10.1717 9.91671V12.4313M2.47925 7.08337L3.478 13.2034C3.70466 14.5775 4.25008 15.5834 6.27591 15.5834H10.5472C12.7501 15.5834 13.0759 14.62 13.3309 13.2884L14.5209 7.08337" stroke="#603AF9" stroke-width="1.5" stroke-linecap="round"/>
</g>
<defs>
<clipPath id="clip0_303_605">
<rect width="17" height="17" fill="white"/>
</clipPath>
</defs>
</svg>
