<svg width="19" height="18" viewBox="0 0 19 18" fill="none" xmlns="http://www.w3.org/2000/svg">
<path d="M17.3204 0C17.5488 0 17.768 0.105357 17.9295 0.292893C18.0911 0.48043 18.1819 0.734784 18.1819 1V17C18.1819 17.2652 18.0911 17.5196 17.9295 17.7071C17.768 17.8946 17.5488 18 17.3204 18H1.8134C1.58492 18 1.36579 17.8946 1.20423 17.7071C1.04267 17.5196 0.951904 17.2652 0.951904 17V1C0.951904 0.734784 1.04267 0.48043 1.20423 0.292893C1.36579 0.105357 1.58492 0 1.8134 0H17.3204ZM8.70538 10H2.6749V16H8.70538V10ZM16.4589 10H10.4284V16H16.4589V10ZM8.70538 2H2.6749V8H8.70538V2ZM16.4589 2H10.4284V8H16.4589V2Z" fill="#B3B3B3"/>
</svg>
