<svg width="16" height="15" viewBox="0 0 16 15" fill="none" xmlns="http://www.w3.org/2000/svg">
<path d="M1 14H14.3536" stroke="#5E37F3" stroke-width="1.5" stroke-miterlimit="10" stroke-linecap="round" stroke-linejoin="round"/>
<path d="M1.63428 14L1.66766 5.96775C1.66766 5.56046 1.86129 5.1732 2.18178 4.91948L6.85555 1.28062C7.09067 1.0987 7.37953 1 7.6768 1C7.97408 1 8.26294 1.0987 8.49805 1.28062L13.1718 4.91281C13.499 5.16653 13.6859 5.55378 13.6859 5.96775V14" stroke="#5E37F3" stroke-width="1.5" stroke-miterlimit="10" stroke-linejoin="round"/>
<path d="M8.34457 10.6616H7.00921C6.45503 10.6616 6.00769 11.109 6.00769 11.6632V14.0001H9.3461V11.6632C9.3461 11.109 8.89875 10.6616 8.34457 10.6616ZM6.00769 8.49167H4.67232C4.3051 8.49167 4.00464 8.19122 4.00464 7.82399V6.82247C4.00464 6.45524 4.3051 6.15479 4.67232 6.15479H6.00769C6.37491 6.15479 6.67537 6.45524 6.67537 6.82247V7.82399C6.67537 8.19122 6.37491 8.49167 6.00769 8.49167ZM10.6815 8.49167H9.3461C8.97887 8.49167 8.67842 8.19122 8.67842 7.82399V6.82247C8.67842 6.45524 8.97887 6.15479 9.3461 6.15479H10.6815C11.0487 6.15479 11.3491 6.45524 11.3491 6.82247V7.82399C11.3491 8.19122 11.0487 8.49167 10.6815 8.49167Z" stroke="#5E37F3" stroke-width="1.5" stroke-miterlimit="10" stroke-linejoin="round"/>
<path d="M12.3507 3.98474L12.3306 1.98169H9.39282" stroke="#5E37F3" stroke-width="1.5" stroke-miterlimit="10" stroke-linecap="round" stroke-linejoin="round"/>
</svg>
