<svg width="188" height="110" viewBox="0 0 188 110" fill="none" xmlns="http://www.w3.org/2000/svg">
<path d="M177.963 106.369C178.063 105.805 178.114 105.233 178.116 104.66C178.116 101.2 176.381 98.3498 174.119 97.8423C173.616 93.7881 171.385 90.7303 168.707 90.7303C166.03 90.7303 163.826 93.7513 163.307 97.7713C163.244 97.7713 163.178 97.7556 163.112 97.7556C160.876 97.7556 159.065 100.663 159.065 104.25C159.065 104.962 159.14 105.672 159.289 106.369H177.963Z" fill="#58600F"/>
<path d="M184.844 106.369C184.945 105.805 184.996 105.233 184.997 104.66C184.997 101.2 183.261 98.3498 180.999 97.8423C180.496 93.7881 178.266 90.7303 175.591 90.7303C172.915 90.7303 170.709 93.7513 170.19 97.7713C170.124 97.7713 170.058 97.7556 169.995 97.7556C167.76 97.7556 165.945 100.663 165.945 104.25C165.945 104.962 166.021 105.673 166.172 106.369H184.844Z" fill="#6E721C"/>
<path d="M167.844 68.4031C167.844 66.6836 140.664 0.380493 140.664 0.380493H58.4286L13.356 65.3217L80.5371 65.2218L80.4502 68.4137L167.844 68.4031Z" fill="#C44122"/>
<path d="M187.372 104.476H0.469025V109.973H187.372V104.476Z" fill="#93AA31"/>
<path d="M11.3784 104.72L187.372 109.971V104.476L11.3784 104.72Z" fill="#748221"/>
<path d="M24.5102 12.7483H41.7025H42.4608L44.1514 6.39087H23.636L24.5102 12.7483Z" fill="#A32B37"/>
<path d="M42.474 54.8759H25.4424V12.5537V6.39087H42.474V54.8759Z" fill="#E53310"/>
<path d="M25.4424 7.52674C27.6253 7.85802 33.5764 9.15421 35.8067 13.6054C38.095 18.175 35.3012 45.7132 34.2926 54.8839H42.474V6.39355H25.4424V7.52674Z" fill="#D6250D"/>
<path opacity="0.47" d="M26.9038 11.0288C26.5141 11.368 26.1297 12.8351 26.9038 13.0901C27.678 13.3452 30.9037 13.8211 30.3876 12.4907C29.8715 11.1603 28.0493 10.0429 26.9038 11.0288Z" fill="#7A160B"/>
<path opacity="0.47" d="M28.5022 14.841C28.1362 15.2643 27.7517 16.3265 28.5022 17.0759C29.2527 17.8252 34.2163 18.0197 32.926 16.3002C31.6357 14.5807 29.4343 13.7894 28.5022 14.841Z" fill="#7A160B"/>
<path opacity="0.47" d="M26.8617 19.7472C26.2587 20.0259 25.5266 22.3238 26.5589 22.7971C27.5911 23.2704 30.9458 23.6569 30.9458 22.5342C30.9458 21.4115 30.6351 17.9962 26.8617 19.7472Z" fill="#7A160B"/>
<path opacity="0.47" d="M26.5589 17.0969C26.4588 17.0969 25.9822 17.5229 26.4904 18.0303C26.9986 18.5377 28.6128 17.2889 26.5589 17.0969Z" fill="#7A160B"/>
<path opacity="0.47" d="M26.7327 14.5992C26.4035 14.7307 25.8295 15.3722 26.443 15.9848C27.0566 16.5974 27.9571 15.5825 27.7807 15.0672C27.6991 14.8701 27.545 14.7118 27.3501 14.6247C27.1551 14.5377 26.9342 14.5286 26.7327 14.5992Z" fill="#7A160B"/>
<path opacity="0.47" d="M30.9458 13.4898C30.8194 13.9262 30.909 15.3302 32.3941 14.5993C33.8792 13.8684 31.454 11.765 30.9458 13.4898Z" fill="#7A160B"/>
<path d="M152.792 76.133L167.844 68.4032H152.792V76.133Z" fill="#921732"/>
<path d="M13.356 65.3113L17.1399 68.4032V65.3113H13.356Z" fill="#921732"/>
<path d="M140.635 8.47327C140.703 9.83519 140.356 11.3654 139.368 12.2909C137.659 13.8289 135.305 11.9491 135.482 8.47327C135.908 13.9551 140.216 13.8894 140.635 8.47327Z" fill="#8E2E1B"/>
<path d="M135.463 8.47327C135.532 9.83519 135.184 11.3654 134.197 12.2909C132.496 13.8289 130.134 11.9543 130.31 8.47327C130.737 13.9551 135.045 13.8894 135.463 8.47327Z" fill="#8E2E1B"/>
<path d="M130.286 8.47327C130.355 9.83519 130.007 11.3654 129.02 12.2909C127.321 13.8289 124.957 11.9543 125.133 8.47327C125.565 13.9551 129.873 13.8894 130.286 8.47327Z" fill="#8E2E1B"/>
<path d="M125.123 8.47327C125.191 9.83519 124.841 11.3654 123.853 12.2909C122.155 13.8289 119.79 11.9543 119.969 8.47327C120.393 13.9551 124.704 13.8894 125.123 8.47327Z" fill="#8E2E1B"/>
<path d="M119.951 8.47327C120.019 9.83519 119.672 11.3654 118.684 12.2909C116.983 13.8289 114.619 11.9543 114.798 8.47327C115.224 13.9551 119.532 13.8894 119.951 8.47327Z" fill="#8E2E1B"/>
<path d="M114.779 8.47327C114.848 9.83519 114.5 11.3654 113.513 12.2909C111.812 13.8289 109.45 11.9543 109.626 8.47327C110.053 13.9551 114.361 13.8894 114.779 8.47327Z" fill="#8E2E1B"/>
<path d="M109.608 8.47327C109.676 9.83519 109.329 11.3654 108.341 12.2909C106.64 13.8289 104.278 11.9491 104.455 8.47327C104.881 13.9551 109.192 13.8894 109.608 8.47327Z" fill="#8E2E1B"/>
<path d="M104.439 8.47327C104.507 9.83519 104.157 11.3654 103.17 12.2909C101.471 13.8289 99.1065 11.9543 99.2855 8.47327C99.7095 13.9551 104.02 13.8894 104.439 8.47327Z" fill="#8E2E1B"/>
<path d="M99.2671 8.47327C99.3356 9.83519 98.988 11.3654 98.0005 12.2909C96.2995 13.8289 93.948 11.9491 94.1139 8.47327C94.5405 13.9551 98.8484 13.8894 99.2671 8.47327Z" fill="#8E2E1B"/>
<path d="M94.0955 8.47327C94.1639 9.83519 93.8164 11.3654 92.8289 12.2909C91.1278 13.8289 88.7659 11.9491 88.9449 8.47327C89.3689 13.9551 93.6847 13.8894 94.0955 8.47327Z" fill="#8E2E1B"/>
<path d="M88.9239 8.47327C88.9923 9.83519 88.6447 11.3654 87.6573 12.2909C85.9562 13.8289 83.5942 11.9543 83.7707 8.47327C84.2051 13.9551 88.5078 13.8894 88.9239 8.47327Z" fill="#8E2E1B"/>
<path d="M83.7549 8.47327C83.8233 9.83519 83.4731 11.3654 82.4856 12.2909C80.782 13.8289 78.4121 11.9491 78.6017 8.47327C79.0256 13.9551 83.3362 13.8894 83.7549 8.47327Z" fill="#8E2E1B"/>
<path d="M78.5832 8.47327C78.6517 9.83519 78.3041 11.3654 77.3166 12.2909C75.6156 13.8289 73.2536 11.9543 73.43 8.47327C73.8566 13.9551 78.1645 13.8894 78.5832 8.47327Z" fill="#8E2E1B"/>
<path d="M73.409 8.47327C73.4774 9.83519 73.1298 11.3654 72.1424 12.2909C70.4413 13.8289 68.0793 11.9543 68.2558 8.47327C68.685 13.9551 72.9929 13.8894 73.409 8.47327Z" fill="#8E2E1B"/>
<path d="M68.24 8.47327C68.3084 9.83519 67.9609 11.3654 66.9734 12.2909C65.275 13.8289 62.9104 11.9543 63.0868 8.47327C63.5134 13.9551 67.8239 13.8894 68.24 8.47327Z" fill="#8E2E1B"/>
<path d="M146.725 15.9691C146.794 17.331 146.446 18.8612 145.459 19.7867C143.76 21.3274 141.396 19.4528 141.572 15.9691C141.999 21.451 146.309 21.3853 146.725 15.9691Z" fill="#8E2E1B"/>
<path d="M141.556 15.9691C141.625 17.331 141.275 18.8612 140.287 19.7867C138.589 21.3274 136.224 19.4528 136.403 15.9691C136.827 21.451 141.138 21.3853 141.556 15.9691Z" fill="#8E2E1B"/>
<path d="M136.385 15.9691C136.453 17.331 136.106 18.8612 135.118 19.7867C133.417 21.3274 131.055 19.4528 131.232 15.9691C131.658 21.451 135.966 21.3853 136.385 15.9691Z" fill="#8E2E1B"/>
<path d="M131.213 15.9691C131.282 17.331 130.934 18.8612 129.947 19.7867C128.246 21.3274 125.884 19.4528 126.06 15.9691C126.487 21.451 130.795 21.3853 131.213 15.9691Z" fill="#8E2E1B"/>
<path d="M126.042 15.9691C126.11 17.331 125.762 18.8612 124.775 19.7867C123.077 21.3274 120.712 19.4528 120.888 15.9691C121.315 21.451 125.626 21.3853 126.042 15.9691Z" fill="#8E2E1B"/>
<path d="M120.873 15.9691C120.941 17.331 120.593 18.8612 119.603 19.7867C117.91 21.3274 115.54 19.4528 115.719 15.9691C116.143 21.451 120.454 21.3853 120.873 15.9691Z" fill="#8E2E1B"/>
<path d="M115.701 15.9691C115.769 17.331 115.422 18.8612 114.434 19.7867C112.733 21.3274 110.371 19.4528 110.548 15.9691C110.974 21.451 115.277 21.3853 115.701 15.9691Z" fill="#8E2E1B"/>
<path d="M110.537 15.9691C110.606 17.331 110.258 18.8612 109.271 19.7867C107.57 21.3274 105.208 19.4528 105.384 15.9691C105.797 21.451 110.111 21.3853 110.537 15.9691Z" fill="#8E2E1B"/>
<path d="M105.358 15.9691C105.429 17.331 105.079 18.8612 104.091 19.7867C102.393 21.3274 100.028 19.4528 100.205 15.9691C100.631 21.451 104.942 21.3853 105.358 15.9691Z" fill="#8E2E1B"/>
<path d="M100.189 15.9691C100.257 17.331 99.9096 18.8612 98.9195 19.7867C97.2211 21.3274 94.8565 19.4528 95.0355 15.9691C95.4595 21.451 99.7701 21.3853 100.189 15.9691Z" fill="#8E2E1B"/>
<path d="M95.0171 15.9691C95.0856 17.331 94.738 18.8612 93.7505 19.7867C92.0495 21.3274 89.6875 19.4528 89.8639 15.9691C90.2905 21.451 94.5984 21.3853 95.0171 15.9691Z" fill="#8E2E1B"/>
<path d="M89.8455 15.9691C89.9139 17.331 89.5663 18.8612 88.5789 19.7867C86.8778 21.3274 84.5158 19.4528 84.6923 15.9691C85.1188 21.451 89.4268 21.3853 89.8455 15.9691Z" fill="#8E2E1B"/>
<path d="M84.6738 15.9691C84.7423 17.331 84.3947 18.8612 83.4073 19.7867C81.7088 21.3274 79.3442 19.4528 79.5206 15.9691C79.9472 21.451 84.2552 21.3853 84.6738 15.9691Z" fill="#8E2E1B"/>
<path d="M79.5048 15.9691C79.5733 17.331 79.2231 18.8612 78.2356 19.7867C76.5372 21.3274 74.1726 19.4528 74.3517 15.9691C74.7756 21.451 79.0862 21.3853 79.5048 15.9691Z" fill="#8E2E1B"/>
<path d="M74.3332 15.9691C74.4017 17.331 74.0541 18.8612 73.0666 19.7867C71.3656 21.3274 69.0036 19.4528 69.18 15.9691C69.6066 21.451 73.9145 21.3853 74.3332 15.9691Z" fill="#8E2E1B"/>
<path d="M110.311 37.8204C110.379 39.1824 110.032 40.7126 109.044 41.638C107.343 43.1761 104.981 41.3015 105.158 37.8204C105.584 43.2997 109.892 43.2366 110.311 37.8204Z" fill="#8E2E1B"/>
<path d="M105.139 37.8204C105.208 39.1824 104.86 40.7126 103.873 41.638C102.172 43.1761 99.8095 41.3015 99.986 37.8204C100.413 43.2997 104.72 43.2366 105.139 37.8204Z" fill="#8E2E1B"/>
<path d="M99.9675 37.8204C100.039 39.1824 99.6884 40.7126 98.701 41.638C97.0025 43.1761 94.6379 41.3015 94.817 37.8204C95.2409 43.2997 99.5515 43.2366 99.9675 37.8204Z" fill="#8E2E1B"/>
<path d="M94.7985 37.8204C94.867 39.1824 94.5194 40.7126 93.532 41.638C91.8309 43.1761 89.4663 41.3015 89.6453 37.8204C90.0693 43.2997 94.3799 43.2366 94.7985 37.8204Z" fill="#8E2E1B"/>
<path d="M89.6269 37.8204C89.6953 39.1824 89.3478 40.7126 88.3603 41.638C86.6593 43.1761 84.2973 41.3015 84.4737 37.8204C84.9003 43.2997 89.2082 43.2366 89.6269 37.8204Z" fill="#8E2E1B"/>
<path d="M84.4684 37.8204C84.5369 39.1824 84.1893 40.7126 83.2019 41.638C81.5008 43.1761 79.1388 41.3015 79.3152 37.8204C79.7287 43.2997 84.0366 43.2366 84.4684 37.8204Z" fill="#8E2E1B"/>
<path d="M79.2837 37.8204C79.3548 39.1824 79.0045 40.7126 78.0171 41.638C76.3187 43.1761 73.954 41.3015 74.1331 37.8204C74.557 43.2997 78.8676 43.2366 79.2837 37.8204Z" fill="#8E2E1B"/>
<path d="M74.1147 37.8204C74.1831 39.1824 73.8355 40.7126 72.8481 41.638C71.147 43.1761 68.7824 41.3015 68.9615 37.8204C69.3854 43.2997 73.696 43.2366 74.1147 37.8204Z" fill="#8E2E1B"/>
<path d="M68.9325 37.8204C69.001 39.1824 68.6534 40.7126 67.6659 41.638C65.9649 43.1761 63.6029 41.3015 63.7793 37.8204C64.2164 43.2997 68.5244 43.2366 68.9325 37.8204Z" fill="#8E2E1B"/>
<path d="M63.7714 37.8204C63.8399 39.1824 63.4923 40.7126 62.5048 41.638C60.8038 43.1761 58.4418 41.3015 58.6182 37.8204C59.0448 43.2997 63.3527 43.2366 63.7714 37.8204Z" fill="#8E2E1B"/>
<path d="M58.5998 37.8204C58.6709 39.1824 58.3207 40.7126 57.3332 41.638C55.6348 43.1761 53.2702 41.3015 53.4466 37.8204C53.8732 43.2997 58.1837 43.2366 58.5998 37.8204Z" fill="#8E2E1B"/>
<path d="M53.4308 37.8204C53.4992 39.1824 53.1517 40.7126 52.1616 41.638C50.4632 43.1761 48.0985 41.3015 48.2776 37.8204C48.7015 43.2997 53.0121 43.2366 53.4308 37.8204Z" fill="#8E2E1B"/>
<path d="M48.2592 37.8204C48.3276 39.1824 47.9801 40.7126 46.9926 41.638C45.2915 43.1761 42.9296 41.3015 43.106 37.8204C43.5326 43.2997 47.8405 43.2366 48.2592 37.8204Z" fill="#8E2E1B"/>
<path d="M43.0875 37.8204C43.156 39.1824 42.8084 40.7126 41.821 41.638C40.1199 43.1761 37.7579 41.3015 37.9343 37.8204C38.3609 43.2997 42.6689 43.2366 43.0875 37.8204Z" fill="#8E2E1B"/>
<path d="M37.9186 37.8204C37.987 39.1824 37.6368 40.7126 36.6493 41.638C34.9509 43.1761 32.5863 41.3015 32.7627 37.8204C33.1893 43.2997 37.4999 43.2366 37.9186 37.8204Z" fill="#8E2E1B"/>
<path d="M106.324 44.5143C106.393 45.8762 106.045 47.4064 105.058 48.3319C103.356 49.87 100.994 47.9953 101.171 44.5143C101.597 49.9935 105.905 49.9304 106.324 44.5143Z" fill="#8E2E1B"/>
<path d="M101.152 44.5143C101.221 45.8762 100.873 47.4064 99.8859 48.3319C98.1848 49.87 95.8228 47.9953 95.9993 44.5143C96.4258 49.9935 100.734 49.9304 101.152 44.5143Z" fill="#8E2E1B"/>
<path d="M95.9808 44.5143C96.0493 45.8762 95.7017 47.4064 94.7142 48.3319C93.0158 49.87 90.6512 47.9953 90.8276 44.5143C91.2542 49.9935 95.5648 49.9304 95.9808 44.5143Z" fill="#8E2E1B"/>
<path d="M90.8119 44.5143C90.8803 45.8762 90.5327 47.4064 89.5427 48.3319C87.8442 49.87 85.4796 47.9953 85.6587 44.5143C86.0826 49.9935 90.3932 49.9304 90.8119 44.5143Z" fill="#8E2E1B"/>
<path d="M85.6402 44.5143C85.7087 45.8762 85.3611 47.4064 84.3737 48.3319C82.6726 49.87 80.3106 47.9953 80.487 44.5143C80.9136 49.9935 85.2216 49.9304 85.6402 44.5143Z" fill="#8E2E1B"/>
<path d="M80.4686 44.5143C80.5371 45.8762 80.1895 47.4064 79.202 48.3319C77.501 49.87 75.139 47.9953 75.3154 44.5143C75.742 49.9935 80.0499 49.9304 80.4686 44.5143Z" fill="#8E2E1B"/>
<path d="M75.297 44.5143C75.3681 45.8762 75.0179 47.4064 74.0304 48.3319C72.332 49.87 69.9674 47.9953 70.1438 44.5143C70.5704 49.9935 74.8809 49.9304 75.297 44.5143Z" fill="#8E2E1B"/>
<path d="M70.128 44.5143C70.1964 45.8762 69.8489 47.4064 68.8588 48.3319C67.1603 49.87 64.7957 47.9953 64.9748 44.5143C65.3987 49.9935 69.7225 49.9304 70.128 44.5143Z" fill="#8E2E1B"/>
<path d="M64.9563 44.5143C65.0248 45.8762 64.6772 47.4064 63.6898 48.3319C61.9887 49.87 59.6267 47.9953 59.8032 44.5143C60.2429 49.9935 64.5377 49.9304 64.9563 44.5143Z" fill="#8E2E1B"/>
<path d="M59.7847 44.5143C59.8532 45.8762 59.5056 47.4064 58.5181 48.3319C56.8171 49.87 54.4551 47.9953 54.6315 44.5143C55.0581 49.9935 59.366 49.9304 59.7847 44.5143Z" fill="#8E2E1B"/>
<path d="M54.6131 44.5143C54.6842 45.8762 54.334 47.4064 53.3465 48.3319C51.6481 49.87 49.2835 47.9953 49.4599 44.5143C49.8865 49.9935 54.1865 49.9304 54.6131 44.5143Z" fill="#8E2E1B"/>
<path d="M49.4467 44.5143C49.5152 45.8762 49.1676 47.4064 48.1775 48.3319C46.4791 49.87 44.1145 47.9953 44.2935 44.5143C44.707 49.9935 49.0254 49.9304 49.4467 44.5143Z" fill="#8E2E1B"/>
<path d="M44.2725 44.5143C44.3409 45.8762 43.9934 47.4064 43.0059 48.3319C41.3049 49.87 38.9429 47.9953 39.1193 44.5143C39.5459 49.9935 43.8538 49.9304 44.2725 44.5143Z" fill="#8E2E1B"/>
<path d="M39.1009 44.5143C39.1693 45.8762 38.8217 47.4064 37.8343 48.3319C36.1332 49.87 33.7712 47.9953 33.9477 44.5143C34.3742 49.9935 38.6822 49.9304 39.1009 44.5143Z" fill="#8E2E1B"/>
<path d="M33.9292 44.5143C33.9977 45.8762 33.6501 47.4064 32.6627 48.3319C30.9642 49.87 28.5996 47.9953 28.776 44.5143C29.2026 49.9935 33.5132 49.9304 33.9292 44.5143Z" fill="#8E2E1B"/>
<g style="mix-blend-mode:screen" opacity="0.56">
<path d="M103.296 0.380493H58.4286L13.356 65.3217C97.4291 57.5288 104.42 17.8726 103.296 0.380493Z" fill="#DD482A"/>
</g>
<path d="M80.5371 92.6234H11.3784V104.476H80.5371V92.6234Z" fill="#70537C"/>
<path d="M11.3784 101.868V104.497H80.5371V92.6234H77.4299C72.5427 103.792 31.2355 102.935 11.3784 101.868Z" fill="#584063"/>
<path d="M156.824 92.6234H119.677V104.476H156.824V92.6234Z" fill="#584063"/>
<path d="M151.328 92.6234H119.677V68.4032H154.341L151.328 92.6234Z" fill="#F7BB4F"/>
<path d="M72.1792 6.30151L39.8487 44.0253V65.285L15.789 65.3218C15.789 65.3218 15.8364 66.029 15.9154 67.2148C16.3262 73.262 17.5717 91.7742 17.5717 92.6365H80.5371V65.2114H107.114V44.0253L72.1792 6.30151Z" fill="#FFD085"/>
<path opacity="0.26" d="M67.55 11.7019L86.8594 33.1456L91.9625 27.6559L72.1792 6.30151L67.55 11.7019Z" fill="#C24F29"/>
<path opacity="0.56" d="M39.8487 65.2719V92.6155C39.8487 92.6155 33.5711 74.6528 25.4424 71.8659C17.3137 69.0789 16.0524 69.1972 16.0524 69.1972L15.789 65.3008L39.8487 65.2719Z" fill="#C24F29"/>
<path d="M84.242 65.5453H68.4032V88.1617H84.242V65.5453Z" fill="#06634D"/>
<path d="M68.053 65.1956V88.5113H84.5896V65.1956H68.053ZM83.8918 73.0463H76.7137V65.8949H83.8918V73.0463ZM76.7137 73.7852H83.8918V79.8481H76.7137V73.7852ZM75.8842 65.8976V73.049H68.7508V65.8976H75.8842ZM75.8842 79.8507H68.7508V73.7852H75.8842V79.8507ZM68.7508 80.5921H75.8842V87.8146H68.7508V80.5921ZM76.7137 87.8146V80.5895H83.8918V87.8119L76.7137 87.8146Z" fill="#FFF9F3"/>
<path d="M39.8513 44.0094H37.0549L70.4519 4.38477L72.1792 6.30145L39.8513 44.0094Z" fill="#A32B37"/>
<path d="M106.277 27.3693L83.2466 6.30674L69.7698 3.61707L36.7968 43.1313L37.0548 44.0095L70.4518 4.38479L96.6576 33.9317L106.277 27.3693Z" fill="#F22E47"/>
<path d="M119.677 97.5188H79.7629V41.6063L98.7299 22.797L119.677 41.6063V97.5188Z" fill="#FFDCA9"/>
<path d="M126.6 41.2198H119.677V98.5495H126.6V41.2198Z" fill="#E5852E"/>
<path d="M77.4272 95.973V97.519V107.31H121.631V95.973H77.4272Z" fill="#B586C9"/>
<path d="M127.242 95.973H121.631V107.31H127.242V95.973Z" fill="#996EAF"/>
<path d="M98.7299 22.7971L78.2146 43.41L77.4272 42.1217L98.7299 20.4677L122.076 42.1244L121.568 44.141L98.7299 22.7971Z" fill="#FF686E"/>
<path d="M122.076 42.1244H128.706L104.052 20.4677H98.7299L122.076 42.1244Z" fill="#F22E47"/>
<path d="M121.568 44.141L122.076 42.1244H128.706L128.077 43.9569L121.568 44.141Z" fill="#B62335"/>
<path d="M116.417 55.0836H84.2683V64.37H116.417V55.0836Z" fill="#06634D"/>
<path d="M86.8489 57.6839H116.415V55.0836H84.2683V64.37H86.8489V57.6839Z" fill="#084938"/>
<path d="M83.9076 54.7208V64.7328H116.775V54.7208H83.9076ZM94.5694 64.0072H84.6291V55.4465H94.5694V64.0072ZM106.213 64.0072H95.3304V55.4465H106.213V64.0072ZM116.067 64.0072H106.982V55.4465H116.067V64.0072Z" fill="#FFEFEE"/>
<g style="mix-blend-mode:screen">
<path d="M93.9717 56.2931H85.6481V62.8004H93.9717V56.2931Z" fill="#06634D"/>
</g>
<g style="mix-blend-mode:screen">
<path d="M115.698 56.2931H107.375V62.8004H115.698V56.2931Z" fill="#06634D"/>
</g>
<g style="mix-blend-mode:screen">
<path d="M105.368 56.2931H95.8913V62.8004H105.368V56.2931Z" fill="#06634D"/>
</g>
<path d="M109.429 71.1428H91.2542V101.089H109.429V71.1428Z" fill="#FFF9F3"/>
<path d="M107.951 72.6809H92.7315V101.089H107.951V72.6809Z" fill="#4C1207"/>
<path opacity="0.4" d="M107.951 72.6809H92.7315V75.4284V101.089H94.7854V75.4284H107.951V72.6809Z" fill="#4C2D18"/>
<path d="M109.774 100.897H91.0199V101.368H109.774V100.897Z" fill="#E5C8B5"/>
<path d="M109.044 101.368H91.6598V102.951H109.044V101.368Z" fill="#B2998B"/>
<path opacity="0.32" d="M109.044 101.368H91.6598V101.881H109.044V101.368Z" fill="#60493E"/>
<path d="M110.93 102.948H89.8639V103.419H110.93V102.948Z" fill="#E5C8B5"/>
<path d="M110.111 103.419H90.5854V105.002H110.111V103.419Z" fill="#B2998B"/>
<path opacity="0.32" d="M110.111 103.419H90.5854V103.932H110.111V103.419Z" fill="#60493E"/>
<path d="M111.741 105.002H88.363V105.53H111.741V105.002Z" fill="#E5C8B5"/>
<path d="M110.832 105.53H89.1635V107.31H110.832V105.53Z" fill="#9B887E"/>
<path opacity="0.32" d="M110.832 105.53H89.1635V106.106H110.832V105.53Z" fill="#60493E"/>
<path d="M105.876 73.9639H94.2298V90.5936H105.876V73.9639Z" fill="#06634D"/>
<g style="mix-blend-mode:screen">
<path d="M94.2298 73.9639V76.7377H103.098V90.5936H105.876V73.9639H94.2298Z" fill="#06634D"/>
</g>
<path d="M93.9743 73.7089V90.8512H106.132V73.7089H93.9743ZM105.618 79.4931H100.352V74.2347H105.618V79.4931ZM100.352 80.0373H105.618V84.4938H100.352V80.0373ZM99.7411 74.2216V79.48H94.4878V74.2216H99.7411ZM99.7411 84.4754H94.4878V80.0242H99.7411V84.4754ZM94.4957 85.0197H99.7411V90.3333H94.4878L94.4957 85.0197ZM100.349 90.3333V85.0249H105.616V90.3385L100.349 90.3333Z" fill="#FFF9F3"/>
<path d="M61.104 65.5453H45.2652V88.1617H61.104V65.5453Z" fill="#06634D"/>
<path d="M44.915 65.1956V88.5113H61.4515V65.1956H44.915ZM60.7537 73.0463H53.5756V65.8949H60.7537V73.0463ZM53.5756 73.7852H60.7537V79.8481H53.5756V73.7852ZM52.7461 65.8976V73.049H45.6128V65.8976H52.7461ZM52.7461 79.8507H45.6128V73.7852H52.7461V79.8507ZM45.6128 80.5921H52.7461V87.8146H45.6128V80.5921ZM53.5756 87.8146V80.5895H60.7537V87.8119L53.5756 87.8146Z" fill="#FFF9F3"/>
<path d="M76.3213 32.0966H60.4825V54.7129H76.3213V32.0966Z" fill="#06634D"/>
<path d="M76.3213 32.0966H60.4825V55.06L62.3784 34.3918L76.3213 32.0966Z" fill="#084938"/>
<path d="M60.1323 31.7468V55.0678H76.6715V31.7468H60.1323ZM75.9711 39.595H68.7956V32.4567H75.9711V39.595ZM68.7956 40.3443H75.9711V46.3915H68.7956V40.3443ZM67.9661 32.4567V39.6081H60.8328V32.4567H67.9661ZM67.9661 46.4125H60.8328V40.3443H67.9661V46.4125ZM60.8328 47.1513H67.9661V54.3763H60.8328V47.1513ZM68.7956 54.3763V47.1382H75.9711V54.3632L68.7956 54.3763Z" fill="#FFF9F3"/>
<path d="M37.0127 69.2051H21.174V91.8215H37.0127V69.2051Z" fill="#06634D"/>
<path d="M21.174 69.2051L32.7548 72.6809L37.0127 91.8215V69.2051H21.174Z" fill="#084938"/>
<path d="M20.8264 68.8553V92.1711H37.3629V68.8553H20.8264ZM36.6652 76.7061H29.487V69.5521H36.6652V76.7061ZM29.487 77.4476H36.6652V83.5079H29.487V77.4476ZM28.6576 69.56V76.7061H21.5347V69.5521L28.6576 69.56ZM28.6576 83.5158H21.5347V77.4476H28.6681L28.6576 83.5158ZM21.5347 84.2519H28.6681V91.4743H21.5347V84.2519ZM29.4975 91.4743V84.2519H36.6757V91.4743H29.4975Z" fill="#FFF9F3"/>
<path d="M146.167 69.2051H130.328V91.8215H146.167V69.2051Z" fill="#06634D"/>
<path d="M130.331 69.2051L144.148 71.1428L146.167 91.8215V69.2051H130.331Z" fill="#084938"/>
<path d="M129.981 68.8553V92.1711H146.517V68.8553H129.981ZM145.822 76.7061H138.641V69.5521H145.822V76.7061ZM138.644 77.4476H145.822V83.5079H138.641L138.644 77.4476ZM137.815 69.56V76.7061H130.679V69.5521L137.815 69.56ZM137.815 83.5158H130.679V77.4476H137.812L137.815 83.5158ZM130.679 84.2519H137.812V91.4743H130.679V84.2519ZM138.641 91.4743V84.2519H145.822V91.4743H138.641Z" fill="#FFF9F3"/>
<path d="M44.1514 3.12805H23.636V6.39089H44.1514V3.12805Z" fill="#ED3D26"/>
<path d="M23.636 6.39089H44.1514V3.12805L43.7643 5.92026L23.636 6.39089Z" fill="#56101A"/>
</svg>
