<svg width="19" height="18" viewBox="0 0 19 18" fill="none" xmlns="http://www.w3.org/2000/svg">
<path d="M8.55904 0.378115C8.82563 0.135296 9.17858 0 9.54545 0C9.91232 0 10.2653 0.135296 10.5319 0.378115L17.487 6.71364C17.9178 7.10511 18.1604 7.65013 18.1604 8.22144V15.925C18.1604 16.4754 17.9335 17.0031 17.5296 17.3923C17.1257 17.7814 16.5779 18 16.0067 18H13.135C12.5638 18 12.016 17.7814 11.6121 17.3923C11.2082 17.0031 10.9813 16.4754 10.9813 15.925V12.4668C10.9813 12.2834 10.9056 12.1074 10.771 11.9777C10.6364 11.848 10.4538 11.7751 10.2634 11.7751H8.82754C8.63714 11.7751 8.45453 11.848 8.3199 11.9777C8.18526 12.1074 8.10962 12.2834 8.10962 12.4668V15.925C8.10962 16.4754 7.88271 17.0031 7.47881 17.3923C7.0749 17.7814 6.52709 18 5.95588 18H3.08422C2.51302 18 1.9652 17.7814 1.5613 17.3923C1.15739 17.0031 0.930481 16.4754 0.930481 15.925V8.22005C0.930481 7.65013 1.17457 7.10511 1.60532 6.71226L8.55904 0.378115ZM9.54545 1.38378L2.5903 7.7193C2.51969 7.78379 2.46343 7.86143 2.42492 7.94751C2.38642 8.0336 2.36648 8.12632 2.36631 8.22005V15.925C2.36631 16.1085 2.44195 16.2844 2.57658 16.4141C2.71122 16.5438 2.89382 16.6167 3.08422 16.6167H5.95588C6.14628 16.6167 6.32889 16.5438 6.46352 16.4141C6.59816 16.2844 6.6738 16.1085 6.6738 15.925V12.4668C6.6738 11.9165 6.90071 11.3887 7.30461 10.9996C7.70852 10.6104 8.25633 10.3918 8.82754 10.3918H10.2634C10.8346 10.3918 11.3824 10.6104 11.7863 10.9996C12.1902 11.3887 12.4171 11.9165 12.4171 12.4668V15.925C12.4171 16.1085 12.4927 16.2844 12.6274 16.4141C12.762 16.5438 12.9446 16.6167 13.135 16.6167H16.0067C16.1971 16.6167 16.3797 16.5438 16.5143 16.4141C16.649 16.2844 16.7246 16.1085 16.7246 15.925V8.22005C16.7246 8.12609 16.7048 8.0331 16.6663 7.94677C16.6278 7.86043 16.5714 7.78257 16.5006 7.71792L9.54545 1.38378Z" fill="#EA5C2B"/>
</svg>
