<svg width="18" height="18" viewBox="0 0 18 18" fill="none" xmlns="http://www.w3.org/2000/svg">
<path d="M8.62572 0C5.98666 0 3.83962 2.12495 3.83962 4.73684C3.83962 7.34874 5.98666 9.47368 8.62572 9.47368C11.2648 9.47368 13.4118 7.34874 13.4118 4.73684C13.4118 2.12495 11.2648 0 8.62572 0ZM8.62572 7.57895C7.04248 7.57895 5.75406 6.30379 5.75406 4.73684C5.75406 3.16989 7.04248 1.89474 8.62572 1.89474C10.209 1.89474 11.4974 3.16989 11.4974 4.73684C11.4974 6.30379 10.209 7.57895 8.62572 7.57895ZM17.2407 18V17.0526C17.2407 13.3967 14.2341 10.4211 10.5402 10.4211H6.71128C3.01641 10.4211 0.0107422 13.3967 0.0107422 17.0526V18H1.92518V17.0526C1.92518 14.4407 4.07222 12.3158 6.71128 12.3158H10.5402C13.1792 12.3158 15.3263 14.4407 15.3263 17.0526V18H17.2407Z" fill="#B3B3B3"/>
</svg>
