<svg width="19" height="18" viewBox="0 0 19 18" fill="none" xmlns="http://www.w3.org/2000/svg">
<path d="M17.262 18H1.94648C1.69261 18 1.44913 17.9052 1.26962 17.7364C1.09011 17.5676 0.989258 17.3387 0.989258 17.1V0.9C0.989258 0.661305 1.09011 0.432387 1.26962 0.263604C1.44913 0.0948211 1.69261 0 1.94648 0H17.262C17.5159 0 17.7593 0.0948211 17.9388 0.263604C18.1184 0.432387 18.2192 0.661305 18.2192 0.9V17.1C18.2192 17.3387 18.1184 17.5676 17.9388 17.7364C17.7593 17.9052 17.5159 18 17.262 18ZM16.3048 16.2V1.8H2.9037V16.2H16.3048ZM5.77535 6.3H13.4331V8.1H5.77535V6.3ZM5.77535 9.9H13.4331V11.7H5.77535V9.9Z" fill="#B3B3B3"/>
</svg>
