<svg width="16" height="15" viewBox="0 0 16 15" fill="none" xmlns="http://www.w3.org/2000/svg">
<path d="M15.2908 12.2412C14.9004 11.3992 14.3339 10.6344 13.6228 9.98932C12.9139 9.34242 12.0741 8.82664 11.1498 8.47048C11.1416 8.46671 11.1333 8.46482 11.125 8.46105C12.4143 7.61307 13.2524 6.23178 13.2524 4.67337C13.2524 2.09171 10.9553 0 8.12018 0C5.28506 0 2.98799 2.09171 2.98799 4.67337C2.98799 6.23178 3.82611 7.61306 5.11537 8.46294C5.10709 8.46671 5.09881 8.46859 5.09053 8.47236C4.16343 8.82852 3.33152 9.3392 2.61756 9.99121C1.90715 10.6367 1.34073 11.4015 0.9496 12.2431C0.565352 13.0671 0.358119 13.9505 0.339117 14.8455C0.338565 14.8656 0.342439 14.8856 0.350511 14.9043C0.358583 14.9231 0.370691 14.9401 0.386119 14.9545C0.401548 14.9689 0.419985 14.9804 0.440346 14.9882C0.460707 14.996 0.482578 15 0.504672 15H1.74633C1.83739 15 1.90982 14.934 1.91189 14.853C1.95327 13.3982 2.5948 12.0358 3.72885 11.0031C4.90222 9.93467 6.4605 9.34673 8.12018 9.34673C9.77987 9.34673 11.3382 9.93467 12.5115 11.0031C13.6456 12.0358 14.2871 13.3982 14.3285 14.853C14.3306 14.9359 14.403 15 14.494 15H15.7357C15.7578 15 15.7797 14.996 15.8 14.9882C15.8204 14.9804 15.8388 14.9689 15.8542 14.9545C15.8697 14.9401 15.8818 14.9231 15.8899 14.9043C15.8979 14.8856 15.9018 14.8656 15.9012 14.8455C15.8806 13.9447 15.6757 13.0685 15.2908 12.2412ZM8.12018 7.91457C7.17031 7.91457 6.27632 7.57726 5.60375 6.96482C4.93119 6.35239 4.56076 5.53832 4.56076 4.67337C4.56076 3.80842 4.93119 2.99435 5.60375 2.38191C6.27632 1.76947 7.17031 1.43216 8.12018 1.43216C9.07005 1.43216 9.96405 1.76947 10.6366 2.38191C11.3092 2.99435 11.6796 3.80842 11.6796 4.67337C11.6796 5.53832 11.3092 6.35239 10.6366 6.96482C9.96405 7.57726 9.07005 7.91457 8.12018 7.91457Z" fill="#603AF9"/>
</svg>
