<svg width="22" height="17" viewBox="0 0 22 17" fill="none" xmlns="http://www.w3.org/2000/svg">
<path d="M18.4167 0H0V14.1667H18.4167V0ZM17 12.75H1.41667V1.41667H17V12.75Z" fill="#603AF9"/>
<path d="M19.8334 3.54163V15.5833H3.54175V17H21.2501V3.54163H19.8334Z" fill="#603AF9"/>
<path d="M9.20825 10.5568C10.9658 10.5568 12.3958 9.00128 12.3958 7.08926C12.3958 5.17725 10.9658 3.6217 9.20825 3.6217C7.4507 3.6217 6.02075 5.1772 6.02075 7.08926C6.02075 9.00132 7.4507 10.5568 9.20825 10.5568ZM9.20825 5.03837C10.1847 5.03837 10.9791 5.95841 10.9791 7.08926C10.9791 8.22012 10.1847 9.14015 9.20825 9.14015C8.23181 9.14015 7.43742 8.22012 7.43742 7.08926C7.43742 5.95841 8.23181 5.03837 9.20825 5.03837Z" fill="#603AF9"/>
<path d="M4.24992 3.1875H2.83325V10.9792H4.24992V3.1875Z" fill="#603AF9"/>
<path d="M15.5834 3.1875H14.1667V10.9792H15.5834V3.1875Z" fill="#603AF9"/>
</svg>
